HIERARCHY
ROOT Hips
{
	OFFSET 0.000000 0.000000 0.000000 
	CHANNELS 6 Xposition Yposition Zposition Yrotation Zrotation Xrotation 
	JOINT Lumbar
	{
		OFFSET 0.000000 0.000000 0.000000 
		CHANNELS 3 Zrotation Xrotation Yrotation
		JOINT Neck
		{
			OFFSET 0.000000 0.445665 0.000000 
			CHANNELS 3 Zrotation Xrotation Yrotation
			End Site
			{
				OFFSET 0.000000 0.227535 0.000000 
			}
		}
		JOINT RightShoulder
		{
			OFFSET 0.019635 0.377685 0.194865 
			CHANNELS 3 Zrotation Xrotation Yrotation
			JOINT RightElbow
			{
				OFFSET 0.000000 -0.243375 0.000000 
				CHANNELS 2 Zrotation Yrotation
				JOINT RightWrist
				{
					OFFSET 0.000000 -0.264825 0.000000 
					CHANNELS 2 Zrotation Xrotation
					End Site
					{
						OFFSET 0.006600 -0.176220 0.000990 
					}
				}
			}
		}
		JOINT LeftShoulder
		{
			OFFSET 0.019635 0.377685 -0.194865 
			CHANNELS 3 Zrotation Xrotation Yrotation
			JOINT LeftElbow
			{
				OFFSET 0.000000 -0.243375 0.000000 
				CHANNELS 2 Zrotation Yrotation
				JOINT LeftWrist
				{
					OFFSET 0.000000 -0.264825 0.000000 
					CHANNELS 2 Zrotation Xrotation
					End Site
					{
						OFFSET 0.006600 -0.176220 -0.000990 
					}
				}
			}
		}
	}
	JOINT RightHip
	{
		OFFSET 0.052140 -0.069960 0.075570 
		CHANNELS 3 Zrotation Xrotation Yrotation
		JOINT RightKnee
		{
			OFFSET 0.000000 -0.402270 0.000000 
			CHANNELS 1 Zrotation
			JOINT RightAnkle
			{
				OFFSET 0.000000 -0.404085 0.000000 
				CHANNELS 3 Zrotation Xrotation Yrotation
				End Site
				{
					OFFSET 0.204105 -0.089430 0.008415 
				}
			}
		}
	}
	JOINT LeftHip
	{
		OFFSET 0.052140 -0.069960 -0.075570 
		CHANNELS 3 Zrotation Xrotation Yrotation
		JOINT LeftKnee
		{
			OFFSET 0.000000 -0.402270 0.000000 
			CHANNELS 1 Zrotation
			JOINT LeftAnkle
			{
				OFFSET 0.000000 -0.404085 0.000000 
				CHANNELS 3 Zrotation Xrotation Yrotation
				End Site
				{
					OFFSET 0.204105 -0.089430 -0.008415 
				}
			}
		}
	}
}
MOTION
Frames: 16
Frame Time: 0.02
-6e-05 -7e-05 0.00017 21.35294 -23.83923 -6.98044 44.68476 2.64431 -4.76121 -8.4146 -0.98447 -0.15872 -28.90955 -10.60402 -3.07712 43.77137 89.47427 5.71586 -0.35252 -32.25776 10.67903 7.51571 48.18258 -117.785 19.85681 -2.7135 37.0472 -0.13495 -1.02912 -21.24698 -10.85269 -5.84857 -4.04907 40.2584 9.48617 0.05028 -27.18615 -10.56996 5.4317 3.79447
0.00015 -8e-05 -0.00021 21.28792 -23.8426 -6.97428 44.72627 2.64915 -4.77404 -8.40868 -0.98289 -0.1589 -28.91516 -10.58016 -3.07289 43.75106 89.40236 5.6788 -0.34838 -32.25322 10.66877 7.52273 48.1719 -117.79026 19.85346 -2.72126 37.03145 -0.272 -1.66014 -21.25316 -10.76874 -5.81478 -4.02128 40.22712 9.57832 0.49627 -27.2048 -10.51593 5.41068 3.77607
0.00036 -0.0001 -0.00059 21.22307 -23.84594 -6.96813 44.76761 2.65396 -4.78687 -8.40275 -0.98132 -0.15908 -28.92075 -10.55586 -3.06986 43.73082 89.33703 5.64319 -0.34297 -32.24873 10.65897 7.52877 48.16128 -117.79035 19.84876 -2.72822 37.0157 -0.40865 -2.28923 -21.2593 -10.68504 -5.7811 -3.99358 40.19589 9.67009 0.94058 -27.22337 -10.46211 5.38974 3.75775
0.00058 -0.00011 -0.00098 21.15825 -23.8493 -6.96198 44.80897 2.65878 -4.79966 -8.39684 -0.97975 -0.15926 -28.92634 -10.53197 -3.06587 43.71058 89.2666 5.6065 -0.33859 -32.24422 10.64882 7.53558 48.15064 -117.79459 19.84515 -2.73581 37 -0.54527 -2.9183 -21.26546 -10.60135 -5.74742 -3.96588 40.16471 9.76194 1.38514 -27.24195 -10.40825 5.36878 3.73941
0.00079 -0.00012 -0.00136 21.09327 -23.85272 -6.95582 44.85052 2.66362 -4.81244 -8.39097 -0.97816 -0.15944 -28.93198 -10.50878 -3.06014 43.69027 89.18661 5.56775 -0.3361 -32.23965 10.63802 7.5438 48.13993 -117.80638 19.8435 -2.74456 36.98431 -0.68229 -3.54931 -21.27166 -10.5174 -5.71364 -3.93809 40.1335 9.85422 1.83153 -27.26063 -10.35416 5.34774 3.72099
0.001 -0.00013 -0.00174 21.02873 -23.85586 -6.9497 44.89143 2.66838 -4.82537 -8.38493 -0.97663 -0.15962 -28.93745 -10.48217 -3.06271 43.67017 89.15169 5.53866 -0.32461 -32.23533 10.63029 7.54532 48.12949 -117.78218 19.83248 -2.74779 36.96843 -0.81816 -4.17435 -21.27769 -10.43425 -5.68014 -3.91056 40.10222 9.94493 2.27147 -27.27897 -10.30089 5.32701 3.70286
0.00122 -0.00014 -0.00212 20.96337 -23.85956 -6.9435 44.93356 2.6733 -4.83799 -8.37921 -0.97499 -0.1598 -28.94323 -10.46234 -3.04889 43.64967 89.02784 5.49052 -0.3309 -32.23051 10.6165 7.56008 48.11852 -117.82912 19.83999 -2.76193 36.95296 -0.95617 -4.8106 -21.28405 -10.34959 -5.64613 -3.88255 40.07113 10.03866 2.72378 -27.29796 -10.24606 5.30568 3.68418
0.00143 -0.00015 -0.0025 20.89876 -23.86275 -6.93737 44.97459 2.67807 -4.85087 -8.37322 -0.97345 -0.15998 -28.94877 -10.43651 -3.04959 43.62954 88.98286 5.45928 -0.32143 -32.22613 10.6081 7.56307 48.10803 -117.81285 19.83104 -2.76637 36.93712 -1.09225 -5.43672 -21.29011 -10.2663 -5.61258 -3.85497 40.03986 10.12965 3.16489 -27.31637 -10.19263 5.28489 3.666
0.00163 -0.00016 -0.00288 20.83505 -23.86529 -6.93133 45.01416 2.68268 -4.86418 -8.36679 -0.97204 -0.16016 -28.95383 -10.40221 -3.07062 43.60984 89.04788 5.45158 -0.28992 -32.22238 10.60715 7.54978 48.09818 -117.70889 19.79921 -2.75738 36.92078 -1.22584 -6.0499 -21.29578 -10.18473 -5.5796 -3.82795 40.00834 10.21713 3.59163 -27.33402 -10.14101 5.2648 3.64848
0.00187 -0.00018 -0.00327 20.76612 -23.87147 -6.92481 45.06182 2.68824 -4.87538 -8.36259 -0.96988 -0.16033 -28.9611 -10.4132 -2.98245 43.58762 88.52099 5.31712 -0.37685 -32.21531 10.56592 7.62444 48.08482 -118.07803 19.89071 -2.82094 36.90715 -1.37338 -6.73588 -21.30365 -10.09342 -5.54339 -3.79781 39.97817 10.32436 4.09902 -27.35588 -10.07928 5.24079 3.62727
0.00204 -0.00018 -0.00363 20.70822 -23.87006 -6.91928 45.09261 2.6918 -4.8908 -8.35387 -0.96933 -0.16052 -28.96404 -10.3309 -3.11957 43.57075 89.21602 5.44444 -0.21939 -32.21502 10.608 7.5173 48.07876 -117.46964 19.72746 -2.73454 36.88791 -1.49171 -7.26928 -21.3069 -10.02256 -5.51396 -3.7742 39.94523 10.3902 4.43755 -27.36894 -10.03872 5.22501 3.61377
0.00205 -0.00011 -0.0039 20.6807 -23.84682 -6.91673 45.07507 2.6897 -4.91971 -8.331 -0.97292 -0.16074 -28.95219 -9.97184 -3.92261 43.56826 93.51552 6.34296 0.65989 -32.23546 10.89495 6.87492 48.09381 -113.9803 18.81286 -2.20661 36.85238 -1.5273 -7.37137 -21.29696 -10.00928 -5.50359 -3.76903 39.9038 10.33897 4.29729 -27.35699 -10.05816 5.23248 3.62214
0.00199 -3e-05 -0.00413 20.66424 -23.81615 -6.91515 45.04098 2.68561 -4.95251 -8.30391 -0.97817 -0.16098 -28.93651 -9.52323 -4.94245 43.57116 98.99197 7.49383 1.77437 -32.26236 11.26257 6.05666 48.11599 -109.54559 17.65199 -1.53359 36.81141 -1.53399 -7.32229 -21.28245 -10.01629 -5.49995 -3.77032 39.85977 10.2468 3.99021 -27.33637 -10.09852 5.24811 3.63812
0.00196 5e-05 -0.00438 20.64264 -23.78952 -6.91298 45.01577 2.68253 -4.98228 -8.27985 -0.98287 -0.1612 -28.92452 -9.12881 -5.83268 43.57183 103.77021 8.49567 2.74875 -32.2849 11.58264 5.34267 48.13425 -105.67379 16.63818 -0.94668 36.77351 -1.55567 -7.35101 -21.27036 -10.01302 -5.49292 -3.76829 39.81749 10.17568 3.7697 -27.32028 -10.12808 5.2596 3.65013
0.00192 0.00013 -0.00462 20.62153 -23.76002 -6.91141 44.98474 2.67899 -5.01737 -8.25105 -0.98676 -0.16144 -28.9044 -8.67608 -6.85701 43.57172 109.25485 9.64609 3.86683 -32.31334 11.94875 4.52578 48.15549 -101.23966 15.47616 -0.27462 36.73298 -1.56968 -7.34226 -21.25682 -10.01414 -5.48726 -3.76784 39.77275 10.09427 3.50393 -27.30163 -10.16313 5.27293 3.66429
0.00189 0.0002 -0.00487 20.60205 -23.73479 -6.90884 44.96197 2.67596 -5.04234 -8.23115 -0.99268 -0.16165 -28.90018 -8.32504 -7.65036 43.57435 113.52902 10.54304 4.73759 -32.33115 12.23819 3.88125 48.17209 -97.74986 14.56365 0.25489 36.69673 -1.59255 -7.37418 -21.2452 -10.01107 -5.48041 -3.7657 39.73259 10.02443 3.29225 -27.28631 -10.19173 5.28438 3.67579
